<svg width="633" height="878" viewBox="0 0 633 878" fill="none" xmlns="http://www.w3.org/2000/svg">
<path fill-rule="evenodd" clip-rule="evenodd" d="M271.031 68.4522C335.888 77.4938 389.692 124.453 437.925 181.438C489.431 242.291 548.477 307.638 549.969 398.006C551.477 489.385 497.786 563.204 445.23 624.054C396.224 680.793 336.485 713.937 271.031 720.962C198.47 728.749 116.566 732.06 65.4209 664.816C14.4324 597.778 25.6513 492.197 25.3948 398.006C25.1369 303.295 13.2196 197.383 63.9626 129.305C115.111 60.6823 197.881 58.2545 271.031 68.4522Z" fill="#F5DE89"/>
<path fill-rule="evenodd" clip-rule="evenodd" d="M346.061 4.70985C447.08 -11.5616 572.016 13.1371 621.064 97.4432C667.291 176.902 565.842 257.032 544.159 345.214C522.587 432.942 583.924 558.045 497.922 598.235C412.015 638.381 334.579 530.417 254.752 480.458C196.462 443.979 125.108 417.422 107.459 353.873C89.3345 288.611 129.808 227.115 168.62 170.319C215.978 101.017 259.485 18.6548 346.061 4.70985Z" fill="#F2D15A"/>
<path fill-rule="evenodd" clip-rule="evenodd" d="M299.963 409.108C343.049 407.696 384.815 420.182 421.197 441.844C459.469 464.632 489.605 496.275 510.043 534.192C533.503 577.718 560.633 626.191 545.742 672.911C530.771 719.879 473.499 738.836 434.422 771.443C389.486 808.939 360.144 877.416 299.963 877.997C239.858 878.576 213.227 805.651 163.477 774.057C111.055 740.766 17.1311 746.391 2.01656 688.786C-13.4351 629.896 63.789 587.035 101.465 537.716C126.448 505.014 149.433 472.471 184.742 449.595C219.324 427.189 257.939 410.486 299.963 409.108Z" fill="#ECBE13"/>
</svg>
