<svg width="19" height="9" viewBox="0 0 19 9" fill="none" xmlns="http://www.w3.org/2000/svg">
<path d="M2.93484 6.72159V2.03409H3.73029V6.72159H2.93484ZM0.988814 4.77557V3.98011H5.67631V4.77557H0.988814ZM9.65447 8.09943C9.23781 8.09943 8.86257 8.01657 8.52876 7.85085C8.19496 7.68513 7.92744 7.45786 7.72621 7.16903C7.52498 6.88021 7.41489 6.55114 7.39595 6.18182H8.24822C8.28137 6.51089 8.43052 6.78314 8.69567 6.99858C8.96319 7.21165 9.28279 7.31818 9.65447 7.31818C9.95277 7.31818 10.2179 7.24834 10.4499 7.10866C10.6843 6.96899 10.8678 6.77723 11.0004 6.53338C11.1353 6.28717 11.2028 6.009 11.2028 5.69886C11.2028 5.38163 11.1329 5.09872 10.9933 4.85014C10.8559 4.5992 10.6665 4.40152 10.4251 4.2571C10.1836 4.11269 9.90779 4.0393 9.59766 4.03693C9.37512 4.03456 9.14666 4.06889 8.91229 4.13991C8.67791 4.20857 8.48497 4.29735 8.33345 4.40625L7.50959 4.30682L7.94993 0.727273H11.7283V1.50852H8.68857L8.43288 3.65341H8.4755C8.62464 3.53504 8.81167 3.43679 9.03658 3.35866C9.26148 3.28054 9.49586 3.24148 9.7397 3.24148C10.1848 3.24148 10.5813 3.34801 10.9293 3.56108C11.2797 3.77178 11.5543 4.06061 11.7532 4.42756C11.9544 4.79451 12.055 5.21354 12.055 5.68466C12.055 6.14867 11.9509 6.56297 11.7425 6.92756C11.5366 7.28977 11.2525 7.57623 10.8903 7.78693C10.5281 7.99527 10.1161 8.09943 9.65447 8.09943ZM15.8379 8.09943C15.3029 8.09943 14.8471 7.95384 14.4707 7.66264C14.0943 7.36908 13.8066 6.94413 13.6078 6.38778C13.4089 5.82907 13.3095 5.15436 13.3095 4.36364C13.3095 3.57765 13.4089 2.90649 13.6078 2.35014C13.809 1.79143 14.0978 1.36529 14.4743 1.07173C14.853 0.775805 15.3076 0.627841 15.8379 0.627841C16.3682 0.627841 16.8216 0.775805 17.198 1.07173C17.5768 1.36529 17.8656 1.79143 18.0645 2.35014C18.2657 2.90649 18.3663 3.57765 18.3663 4.36364C18.3663 5.15436 18.2669 5.82907 18.068 6.38778C17.8691 6.94413 17.5815 7.36908 17.2051 7.66264C16.8287 7.95384 16.3729 8.09943 15.8379 8.09943ZM15.8379 7.31818C16.3682 7.31818 16.7801 7.0625 17.0737 6.55114C17.3672 6.03977 17.514 5.31061 17.514 4.36364C17.514 3.7339 17.4466 3.19768 17.3116 2.75497C17.179 2.31226 16.9873 1.97491 16.7363 1.7429C16.4877 1.51089 16.1883 1.39489 15.8379 1.39489C15.3123 1.39489 14.9016 1.65412 14.6056 2.17259C14.3097 2.68868 14.1618 3.41903 14.1618 4.36364C14.1618 4.99337 14.228 5.52841 14.3606 5.96875C14.4932 6.40909 14.6838 6.74408 14.9324 6.97372C15.1833 7.20336 15.4851 7.31818 15.8379 7.31818Z" fill="#41403C"/>
</svg>
