<svg width="22" height="22" viewBox="0 0 22 22" fill="none" xmlns="http://www.w3.org/2000/svg">
<g id="vuesax/outline/calendar-tick">
<g id="calendar-tick">
<path id="Vector" d="M7.3335 5.27075C6.95766 5.27075 6.646 4.95909 6.646 4.58325V1.83325C6.646 1.45742 6.95766 1.14575 7.3335 1.14575C7.70933 1.14575 8.021 1.45742 8.021 1.83325V4.58325C8.021 4.95909 7.70933 5.27075 7.3335 5.27075Z" fill="#41403C"/>
<path id="Vector_2" d="M14.6665 5.27075C14.2907 5.27075 13.979 4.95909 13.979 4.58325V1.83325C13.979 1.45742 14.2907 1.14575 14.6665 1.14575C15.0423 1.14575 15.354 1.45742 15.354 1.83325V4.58325C15.354 4.95909 15.0423 5.27075 14.6665 5.27075Z" fill="#41403C"/>
<path id="Vector_3" d="M7.79167 13.2916C7.55333 13.2916 7.315 13.1908 7.14083 13.0258C6.97583 12.8516 6.875 12.6224 6.875 12.3749C6.875 12.2558 6.9025 12.1366 6.94833 12.0266C6.99417 11.9166 7.05833 11.8158 7.14083 11.7241C7.48 11.3849 8.09417 11.3849 8.4425 11.7241C8.6075 11.8983 8.70833 12.1366 8.70833 12.3749C8.70833 12.4299 8.69917 12.4941 8.69 12.5583C8.68084 12.6133 8.6625 12.6683 8.635 12.7233C8.61666 12.7783 8.58917 12.8333 8.5525 12.8883C8.51583 12.9341 8.47917 12.9799 8.4425 13.0258C8.26833 13.1908 8.03 13.2916 7.79167 13.2916Z" fill="#41403C"/>
<path id="Vector_4" d="M11.0002 13.2916C10.881 13.2916 10.7618 13.2641 10.6518 13.2183C10.5327 13.1725 10.441 13.1083 10.3493 13.0258C10.1843 12.8516 10.0835 12.6225 10.0835 12.375C10.0835 12.2558 10.111 12.1366 10.1568 12.0266C10.2027 11.9166 10.2668 11.8158 10.3493 11.7241C10.441 11.6416 10.5327 11.5774 10.6518 11.5316C10.991 11.3941 11.3943 11.4675 11.651 11.7241C11.816 11.8983 11.9168 12.1366 11.9168 12.375C11.9168 12.43 11.9077 12.4941 11.8985 12.5583C11.8893 12.6133 11.871 12.6683 11.8435 12.7233C11.8252 12.7783 11.7977 12.8333 11.761 12.8883C11.7335 12.9341 11.6877 12.98 11.651 13.0258C11.4768 13.1908 11.2385 13.2916 11.0002 13.2916Z" fill="#41403C"/>
<path id="Vector_5" d="M7.79167 16.5C7.6725 16.5 7.55334 16.4725 7.44334 16.4266C7.32417 16.3808 7.22333 16.3166 7.14083 16.2341C7.05833 16.1516 6.99417 16.0508 6.94833 15.9316C6.9025 15.8216 6.875 15.7025 6.875 15.5833C6.875 15.4641 6.9025 15.345 6.94833 15.235C6.99417 15.1158 7.05833 15.015 7.14083 14.9325C7.22333 14.85 7.32417 14.7858 7.44334 14.74C7.66334 14.6483 7.92 14.6391 8.14 14.74C8.25916 14.7858 8.36 14.85 8.4425 14.9325C8.525 15.015 8.58916 15.1158 8.635 15.235C8.68083 15.345 8.70833 15.4641 8.70833 15.5833C8.70833 15.7025 8.68083 15.8216 8.635 15.9316C8.58916 16.0508 8.525 16.1516 8.4425 16.2341C8.36 16.3166 8.25916 16.3808 8.14 16.4266C8.03 16.4725 7.91083 16.5 7.79167 16.5Z" fill="#41403C"/>
<path id="Vector_6" d="M18.7918 9.02002H3.2085C2.83266 9.02002 2.521 8.70835 2.521 8.33252C2.521 7.95669 2.83266 7.64502 3.2085 7.64502H18.7918C19.1677 7.64502 19.4793 7.95669 19.4793 8.33252C19.4793 8.70835 19.1677 9.02002 18.7918 9.02002Z" fill="#41403C"/>
<path id="Vector_7" d="M16.5002 21.7708C15.4277 21.7708 14.4102 21.3858 13.631 20.68C13.301 20.405 13.0077 20.0567 12.7693 19.6533C12.366 18.9933 12.146 18.2142 12.146 17.4167C12.146 15.015 14.0985 13.0625 16.5002 13.0625C17.7468 13.0625 18.9385 13.6033 19.7635 14.5383C20.4693 15.345 20.8543 16.3625 20.8543 17.4167C20.8543 18.2142 20.6343 18.9933 20.2218 19.6625C19.4518 20.9642 18.0218 21.7708 16.5002 21.7708ZM16.5002 14.4375C14.8593 14.4375 13.521 15.7758 13.521 17.4167C13.521 17.9575 13.6677 18.4892 13.9518 18.9475C14.1077 19.2225 14.3093 19.4517 14.5293 19.6442C15.0793 20.1392 15.7668 20.3958 16.5002 20.3958C17.5543 20.3958 18.5077 19.855 19.0485 18.9567C19.3327 18.4892 19.4793 17.9667 19.4793 17.4167C19.4793 16.7017 19.2135 16.005 18.7368 15.4458C18.1685 14.8042 17.3527 14.4375 16.5002 14.4375Z" fill="#41403C"/>
<path id="Vector_8" d="M15.9775 19.0116C15.8033 19.0116 15.6291 18.9474 15.4916 18.8099L14.5841 17.9024C14.3183 17.6366 14.3183 17.1966 14.5841 16.9308C14.85 16.6649 15.29 16.6649 15.5558 16.9308L15.9958 17.3708L17.4625 16.0141C17.7375 15.7574 18.1775 15.7758 18.4341 16.0508C18.6908 16.3258 18.6725 16.7658 18.3975 17.0224L16.445 18.8283C16.3075 18.9474 16.1425 19.0116 15.9775 19.0116Z" fill="#41403C"/>
<path id="Vector_9" d="M14.0892 20.8541H7.33333C3.9875 20.8541 2.0625 18.9291 2.0625 15.5833V7.79158C2.0625 4.44575 3.9875 2.52075 7.33333 2.52075H14.6667C18.0125 2.52075 19.9375 4.44575 19.9375 7.79158V14.9966C19.9375 15.2807 19.7633 15.5374 19.4883 15.6382C19.2225 15.7391 18.92 15.6658 18.7275 15.4458C18.1592 14.8041 17.3433 14.4374 16.4908 14.4374C14.85 14.4374 13.5117 15.7758 13.5117 17.4166C13.5117 17.9574 13.6583 18.4891 13.9425 18.9474C14.0983 19.2224 14.3 19.4516 14.52 19.6441C14.74 19.8274 14.8225 20.1299 14.7217 20.4049C14.6392 20.6708 14.3825 20.8541 14.0892 20.8541ZM7.33333 3.89575C4.71167 3.89575 3.4375 5.16992 3.4375 7.79158V15.5833C3.4375 18.2049 4.71167 19.4791 7.33333 19.4791H12.6683C12.3292 18.8558 12.1458 18.1499 12.1458 17.4166C12.1458 15.0149 14.0983 13.0624 16.5 13.0624C17.2242 13.0624 17.9392 13.2458 18.5625 13.5849V7.79158C18.5625 5.16992 17.2883 3.89575 14.6667 3.89575H7.33333Z" fill="#41403C"/>
</g>
</g>
</svg>
