<svg width="20" height="20" viewBox="0 0 20 20" fill="none" xmlns="http://www.w3.org/2000/svg">
<g id="vuesax/bold/profile-2user">
<g id="Vector">
<path d="M7.25021 0.833374C4.84854 0.833374 2.89604 2.78587 2.89604 5.18754C2.89604 7.54337 4.73854 9.45004 7.14021 9.53254C7.21354 9.52337 7.28688 9.52337 7.34188 9.53254C7.36021 9.53254 7.36937 9.53254 7.38771 9.53254C7.39687 9.53254 7.39687 9.53254 7.40604 9.53254C9.75271 9.45004 11.5952 7.54337 11.6044 5.18754C11.6044 2.78587 9.65187 0.833374 7.25021 0.833374Z" fill="#738C79"/>
<path d="M11.9069 11.9709C9.34937 10.2659 5.17854 10.2659 2.60271 11.9709C1.43854 12.75 0.796875 13.8042 0.796875 14.9317C0.796875 16.0592 1.43854 17.1042 2.59354 17.8742C3.87687 18.7359 5.56354 19.1667 7.25021 19.1667C8.93687 19.1667 10.6235 18.7359 11.9069 17.8742C13.0619 17.095 13.7035 16.05 13.7035 14.9134C13.6944 13.7859 13.0619 12.7409 11.9069 11.9709Z" fill="#738C79"/>
<path d="M17.3244 5.72837C17.471 7.50671 16.206 9.06504 14.4552 9.27587C14.446 9.27587 14.446 9.27587 14.4369 9.27587H14.4094C14.3544 9.27587 14.2994 9.27587 14.2535 9.29421C13.3644 9.34004 12.5485 9.05587 11.9344 8.53337C12.8785 7.69004 13.4194 6.42504 13.3094 5.05004C13.2452 4.30754 12.9885 3.62921 12.6035 3.05171C12.9519 2.87754 13.3552 2.76754 13.7677 2.73087C15.5644 2.57504 17.1685 3.91337 17.3244 5.72837Z" fill="#738C79"/>
<path d="M19.1577 14.2075C19.0844 15.0967 18.516 15.8667 17.5627 16.3892C16.646 16.8934 15.491 17.1317 14.3452 17.1042C15.0052 16.5084 15.3902 15.7659 15.4635 14.9775C15.5552 13.8409 15.0144 12.75 13.9327 11.8792C13.3185 11.3934 12.6035 11.0084 11.8244 10.7242C13.8502 10.1375 16.3985 10.5317 17.966 11.7967C18.8094 12.475 19.2402 13.3275 19.1577 14.2075Z" fill="#738C79"/>
</g>
</g>
</svg>
