<svg width="20" height="20" viewBox="0 0 20 20" fill="none" xmlns="http://www.w3.org/2000/svg">
<g id="vuesax/outline/profile-2user">
<g id="Vector">
<path d="M7.39631 9.65159C7.36881 9.65159 7.35048 9.65159 7.32298 9.65159C7.27714 9.64242 7.21297 9.64242 7.15797 9.65159C4.49964 9.56909 2.49214 7.47909 2.49214 4.90325C2.49214 2.28159 4.62798 0.145752 7.24964 0.145752C9.87131 0.145752 12.0071 2.28159 12.0071 4.90325C11.998 7.47909 9.98131 9.56909 7.42381 9.65159C7.41464 9.65159 7.40548 9.65159 7.39631 9.65159ZM7.24964 1.52075C5.38881 1.52075 3.86714 3.04242 3.86714 4.90325C3.86714 6.73659 5.29714 8.21242 7.12131 8.27659C7.17631 8.26742 7.29548 8.26742 7.41464 8.27659C9.21131 8.19409 10.623 6.71825 10.6321 4.90325C10.6321 3.04242 9.11048 1.52075 7.24964 1.52075Z" fill="#41403C"/>
<path d="M14.1613 9.77075C14.1338 9.77075 14.1063 9.77075 14.0788 9.76159C13.703 9.79825 13.318 9.53242 13.2813 9.15659C13.2446 8.78075 13.4738 8.44159 13.8496 8.39575C13.9596 8.38659 14.0788 8.38659 14.1796 8.38659C15.518 8.31325 16.563 7.21325 16.563 5.86575C16.563 4.47242 15.4355 3.34492 14.0421 3.34492C13.6663 3.35409 13.3546 3.04242 13.3546 2.66659C13.3546 2.29075 13.6663 1.97909 14.0421 1.97909C16.1871 1.97909 17.938 3.72992 17.938 5.87492C17.938 7.98325 16.288 9.68825 14.1888 9.77075C14.1796 9.77075 14.1705 9.77075 14.1613 9.77075Z" fill="#41403C"/>
<path d="M7.40548 19.6708C5.60881 19.6708 3.80298 19.2124 2.43714 18.2958C1.16298 17.4524 0.466309 16.2974 0.466309 15.0416C0.466309 13.7858 1.16298 12.6216 2.43714 11.7691C5.18714 9.94492 9.64214 9.94492 12.3738 11.7691C13.6388 12.6124 14.3446 13.7674 14.3446 15.0233C14.3446 16.2791 13.648 17.4433 12.3738 18.2958C10.9988 19.2124 9.20214 19.6708 7.40548 19.6708ZM3.19798 12.9241C2.31798 13.5108 1.84131 14.2624 1.84131 15.0508C1.84131 15.8299 2.32714 16.5816 3.19798 17.1591C5.48048 18.6899 9.33047 18.6899 11.613 17.1591C12.493 16.5724 12.9696 15.8208 12.9696 15.0324C12.9696 14.2533 12.4838 13.5016 11.613 12.9241C9.33047 11.4024 5.48048 11.4024 3.19798 12.9241Z" fill="#41403C"/>
<path d="M15.8113 18.0208C15.4905 18.0208 15.2063 17.8008 15.1421 17.4708C15.0688 17.0949 15.3071 16.7374 15.6738 16.6549C16.2513 16.5358 16.783 16.3066 17.1955 15.9858C17.718 15.5916 18.0021 15.0966 18.0021 14.5741C18.0021 14.0516 17.718 13.5566 17.2046 13.1716C16.8013 12.8599 16.2971 12.6399 15.7013 12.5024C15.3346 12.4199 15.0963 12.0533 15.1788 11.6774C15.2613 11.3108 15.628 11.0724 16.0038 11.1549C16.7921 11.3291 17.4796 11.6408 18.0388 12.0716C18.8913 12.7133 19.3771 13.6208 19.3771 14.5741C19.3771 15.5274 18.8821 16.4349 18.0296 17.0858C17.4613 17.5258 16.7463 17.8466 15.958 18.0024C15.903 18.0208 15.8571 18.0208 15.8113 18.0208Z" fill="#41403C"/>
</g>
</g>
</svg>
