<svg width="22" height="22" viewBox="0 0 22 22" fill="none" xmlns="http://www.w3.org/2000/svg">
<path d="M18.1225 10.3124H14.4192C12.5767 10.3124 11.6875 9.41409 11.6875 7.58075V3.87742C11.6875 2.03492 12.5858 1.14575 14.4192 1.14575H18.1225C19.965 1.14575 20.8542 2.04409 20.8542 3.87742V7.58075C20.8542 9.41409 19.9558 10.3124 18.1225 10.3124ZM14.4192 2.52075C13.3375 2.52075 13.0625 2.79575 13.0625 3.87742V7.58075C13.0625 8.66242 13.3375 8.93742 14.4192 8.93742H18.1225C19.2042 8.93742 19.4792 8.66242 19.4792 7.58075V3.87742C19.4792 2.79575 19.2042 2.52075 18.1225 2.52075H14.4192Z" fill="#41403C"/>
<path d="M7.581 10.3124H3.87766C2.03516 10.3124 1.146 9.49659 1.146 7.80992V3.64825C1.146 1.96159 2.04433 1.14575 3.87766 1.14575H7.581C9.4235 1.14575 10.3127 1.96159 10.3127 3.64825V7.80075C10.3127 9.49659 9.41433 10.3124 7.581 10.3124ZM3.87766 2.52075C2.64933 2.52075 2.521 2.86909 2.521 3.64825V7.80075C2.521 8.58909 2.64933 8.92825 3.87766 8.92825H7.581C8.80933 8.92825 8.93766 8.57992 8.93766 7.80075V3.64825C8.93766 2.85992 8.80933 2.52075 7.581 2.52075H3.87766Z" fill="#41403C"/>
<path d="M7.581 20.8542H3.87766C2.03516 20.8542 1.146 19.9558 1.146 18.1225V14.4192C1.146 12.5767 2.04433 11.6875 3.87766 11.6875H7.581C9.4235 11.6875 10.3127 12.5858 10.3127 14.4192V18.1225C10.3127 19.9558 9.41433 20.8542 7.581 20.8542ZM3.87766 13.0625C2.796 13.0625 2.521 13.3375 2.521 14.4192V18.1225C2.521 19.2042 2.796 19.4792 3.87766 19.4792H7.581C8.66266 19.4792 8.93766 19.2042 8.93766 18.1225V14.4192C8.93766 13.3375 8.66266 13.0625 7.581 13.0625H3.87766Z" fill="#41403C"/>
<path d="M19.25 14.8958H13.75C13.3742 14.8958 13.0625 14.5841 13.0625 14.2083C13.0625 13.8324 13.3742 13.5208 13.75 13.5208H19.25C19.6258 13.5208 19.9375 13.8324 19.9375 14.2083C19.9375 14.5841 19.6258 14.8958 19.25 14.8958Z" fill="#41403C"/>
<path d="M19.25 18.5625H13.75C13.3742 18.5625 13.0625 18.2508 13.0625 17.875C13.0625 17.4992 13.3742 17.1875 13.75 17.1875H19.25C19.6258 17.1875 19.9375 17.4992 19.9375 17.875C19.9375 18.2508 19.6258 18.5625 19.25 18.5625Z" fill="#41403C"/>
</svg>
