<svg width="22" height="22" viewBox="0 0 22 22" fill="none" xmlns="http://www.w3.org/2000/svg">
<g id="vuesax/bold/element-equal">
<g id="element-equal">
<path id="Vector" d="M19.25 14.8959H13.75C13.3742 14.8959 13.0625 14.5842 13.0625 14.2084C13.0625 13.8325 13.3742 13.5209 13.75 13.5209H19.25C19.6258 13.5209 19.9375 13.8325 19.9375 14.2084C19.9375 14.5842 19.6258 14.8959 19.25 14.8959Z" fill="#738C79"/>
<path id="Vector_2" d="M19.25 18.5625H13.75C13.3742 18.5625 13.0625 18.2508 13.0625 17.875C13.0625 17.4992 13.3742 17.1875 13.75 17.1875H19.25C19.6258 17.1875 19.9375 17.4992 19.9375 17.875C19.9375 18.2508 19.6258 18.5625 19.25 18.5625Z" fill="#738C79"/>
<path id="Vector_3" d="M20.1667 7.81004V3.64837C20.1667 2.35587 19.58 1.83337 18.1225 1.83337H14.4192C12.9617 1.83337 12.375 2.35587 12.375 3.64837V7.80087C12.375 9.10254 12.9617 9.61587 14.4192 9.61587H18.1225C19.58 9.62504 20.1667 9.10254 20.1667 7.81004Z" fill="#738C79"/>
<path id="Vector_4" d="M9.62467 7.81004V3.64837C9.62467 2.35587 9.03801 1.83337 7.58051 1.83337H3.87717C2.41967 1.83337 1.83301 2.35587 1.83301 3.64837V7.80087C1.83301 9.10254 2.41967 9.61587 3.87717 9.61587H7.58051C9.03801 9.62504 9.62467 9.10254 9.62467 7.81004Z" fill="#738C79"/>
<path id="Vector_5" d="M9.62467 18.1225V14.4192C9.62467 12.9617 9.03801 12.375 7.58051 12.375H3.87717C2.41967 12.375 1.83301 12.9617 1.83301 14.4192V18.1225C1.83301 19.58 2.41967 20.1667 3.87717 20.1667H7.58051C9.03801 20.1667 9.62467 19.58 9.62467 18.1225Z" fill="#738C79"/>
</g>
</g>
</svg>
