<svg width="22" height="22" viewBox="0 0 22 22" fill="none" xmlns="http://www.w3.org/2000/svg">
<g id="vuesax/outline/task-square">
<g id="task-square">
<path id="Vector" d="M16.1519 8.81836H11.3394C10.9635 8.81836 10.6519 8.50669 10.6519 8.13086C10.6519 7.75503 10.9635 7.44336 11.3394 7.44336H16.1519C16.5277 7.44336 16.8394 7.75503 16.8394 8.13086C16.8394 8.50669 16.5369 8.81836 16.1519 8.81836Z" fill="#41403C"/>
<path id="Vector_2" d="M6.52652 9.51504C6.35235 9.51504 6.17818 9.45088 6.04068 9.31338L5.35318 8.62588C5.08735 8.36004 5.08735 7.92004 5.35318 7.65421C5.61902 7.38838 6.05902 7.38838 6.32485 7.65421L6.52652 7.85588L8.10318 6.27921C8.36902 6.01338 8.80902 6.01338 9.07485 6.27921C9.34068 6.54504 9.34068 6.98504 9.07485 7.25088L7.01235 9.31338C6.88402 9.44171 6.70985 9.51504 6.52652 9.51504Z" fill="#41403C"/>
<path id="Vector_3" d="M16.1519 15.2351H11.3394C10.9635 15.2351 10.6519 14.9234 10.6519 14.5476C10.6519 14.1718 10.9635 13.8601 11.3394 13.8601H16.1519C16.5277 13.8601 16.8394 14.1718 16.8394 14.5476C16.8394 14.9234 16.5369 15.2351 16.1519 15.2351Z" fill="#41403C"/>
<path id="Vector_4" d="M6.52652 15.9315C6.35235 15.9315 6.17818 15.8674 6.04068 15.7299L5.35318 15.0424C5.08735 14.7765 5.08735 14.3365 5.35318 14.0707C5.61902 13.8049 6.05902 13.8049 6.32485 14.0707L6.52652 14.2724L8.10318 12.6957C8.36902 12.4299 8.80902 12.4299 9.07485 12.6957C9.34068 12.9615 9.34068 13.4015 9.07485 13.6674L7.01235 15.7299C6.88402 15.8582 6.70985 15.9315 6.52652 15.9315Z" fill="#41403C"/>
<path id="Vector_5" d="M13.7502 20.8541H8.25016C3.27266 20.8541 1.146 18.7274 1.146 13.7499V8.24992C1.146 3.27242 3.27266 1.14575 8.25016 1.14575H13.7502C18.7277 1.14575 20.8543 3.27242 20.8543 8.24992V13.7499C20.8543 18.7274 18.7277 20.8541 13.7502 20.8541ZM8.25016 2.52075C4.02433 2.52075 2.521 4.02409 2.521 8.24992V13.7499C2.521 17.9758 4.02433 19.4791 8.25016 19.4791H13.7502C17.976 19.4791 19.4793 17.9758 19.4793 13.7499V8.24992C19.4793 4.02409 17.976 2.52075 13.7502 2.52075H8.25016Z" fill="#41403C"/>
</g>
</g>
</svg>
