<svg width="22" height="22" viewBox="0 0 22 22" fill="none" xmlns="http://www.w3.org/2000/svg">
<g id="vuesax/bold/task-square">
<g id="task-square">
<path id="Vector" d="M14.8405 1.83337H7.15884C3.82217 1.83337 1.83301 3.82254 1.83301 7.15921V14.8409C1.83301 18.1775 3.82217 20.1667 7.15884 20.1667H14.8405C18.1772 20.1667 20.1663 18.1775 20.1663 14.8409V7.15921C20.1663 3.82254 18.1772 1.83337 14.8405 1.83337ZM9.13884 13.6584L7.07634 15.7209C6.93884 15.8584 6.76467 15.9225 6.59051 15.9225C6.41634 15.9225 6.23301 15.8584 6.10467 15.7209L5.41717 15.0334C5.14217 14.7675 5.14217 14.3275 5.41717 14.0617C5.68301 13.7959 6.11384 13.7959 6.38884 14.0617L6.59051 14.2634L8.16717 12.6867C8.43301 12.4209 8.86384 12.4209 9.13884 12.6867C9.40467 12.9525 9.40467 13.3925 9.13884 13.6584ZM9.13884 7.24171L7.07634 9.30421C6.93884 9.44171 6.76467 9.50587 6.59051 9.50587C6.41634 9.50587 6.23301 9.44171 6.10467 9.30421L5.41717 8.61671C5.14217 8.35087 5.14217 7.91087 5.41717 7.64504C5.68301 7.37921 6.11384 7.37921 6.38884 7.64504L6.59051 7.84671L8.16717 6.27004C8.43301 6.00421 8.86384 6.00421 9.13884 6.27004C9.40467 6.53587 9.40467 6.97587 9.13884 7.24171ZM16.0963 15.235H11.2838C10.908 15.235 10.5963 14.9234 10.5963 14.5475C10.5963 14.1717 10.908 13.86 11.2838 13.86H16.0963C16.4813 13.86 16.7838 14.1717 16.7838 14.5475C16.7838 14.9234 16.4813 15.235 16.0963 15.235ZM16.0963 8.81837H11.2838C10.908 8.81837 10.5963 8.50671 10.5963 8.13087C10.5963 7.75504 10.908 7.44337 11.2838 7.44337H16.0963C16.4813 7.44337 16.7838 7.75504 16.7838 8.13087C16.7838 8.50671 16.4813 8.81837 16.0963 8.81837Z" fill="#738C79"/>
</g>
</g>
</svg>
