<svg width="132" height="33" viewBox="0 0 132 33" fill="none" xmlns="http://www.w3.org/2000/svg">
<rect width="132" height="33" fill="#C8C8C8"/>
<g clip-path="url(#clip0_2269_3220)">
<rect width="1440" height="964" transform="translate(-730 -184)" fill="#F9F8F7"/>
<path d="M-450 9C-450 4.58172 -446.418 1 -442 1H670C674.418 1 678 4.58172 678 9V47C678 51.4183 674.418 55 670 55H-442C-446.418 55 -450 51.4183 -450 47V9Z" fill="white"/>
<path d="M-139.966 20.3636V32H-141.722V20.3636H-139.966ZM-135.647 26.8182V32H-137.345V23.2727H-135.715V24.6932H-135.607C-135.406 24.2311 -135.092 23.8598 -134.664 23.5795C-134.232 23.2992 -133.688 23.1591 -133.033 23.1591C-132.438 23.1591 -131.917 23.2841 -131.47 23.5341C-131.023 23.7803 -130.677 24.1477 -130.431 24.6364C-130.184 25.125 -130.061 25.7292 -130.061 26.4489V32H-131.76V26.6534C-131.76 26.0208 -131.925 25.5265 -132.255 25.1705C-132.584 24.8106 -133.037 24.6307 -133.613 24.6307C-134.006 24.6307 -134.357 24.7159 -134.664 24.8864C-134.967 25.0568 -135.207 25.3068 -135.385 25.6364C-135.559 25.9621 -135.647 26.3561 -135.647 26.8182ZM-123.509 23.2727V24.6364H-128.276V23.2727H-123.509ZM-126.998 21.1818H-125.299V29.4375C-125.299 29.767 -125.25 30.0152 -125.151 30.1818C-125.053 30.3447 -124.926 30.4564 -124.77 30.517C-124.611 30.5739 -124.439 30.6023 -124.253 30.6023C-124.117 30.6023 -123.998 30.5928 -123.895 30.5739C-123.793 30.5549 -123.714 30.5398 -123.657 30.5284L-123.35 31.9318C-123.448 31.9697 -123.589 32.0076 -123.77 32.0455C-123.952 32.0871 -124.18 32.1098 -124.452 32.1136C-124.899 32.1212 -125.316 32.0417 -125.702 31.875C-126.089 31.7083 -126.401 31.4508 -126.64 31.1023C-126.878 30.7538 -126.998 30.3163 -126.998 29.7898V21.1818ZM-117.762 32.1761C-118.622 32.1761 -119.363 31.9924 -119.984 31.625C-120.601 31.2538 -121.079 30.733 -121.416 30.0625C-121.749 29.3883 -121.916 28.5985 -121.916 27.6932C-121.916 26.7992 -121.749 26.0114 -121.416 25.3295C-121.079 24.6477 -120.609 24.1155 -120.007 23.733C-119.4 23.3504 -118.692 23.1591 -117.882 23.1591C-117.389 23.1591 -116.912 23.2405 -116.45 23.4034C-115.988 23.5663 -115.573 23.822 -115.205 24.1705C-114.838 24.5189 -114.548 24.9716 -114.336 25.5284C-114.124 26.0814 -114.018 26.7538 -114.018 27.5455V28.1477H-120.955V26.875H-115.683C-115.683 26.428 -115.774 26.0322 -115.955 25.6875C-116.137 25.339 -116.393 25.0644 -116.722 24.8636C-117.048 24.6629 -117.431 24.5625 -117.87 24.5625C-118.347 24.5625 -118.764 24.6799 -119.12 24.9148C-119.472 25.1458 -119.745 25.4489 -119.938 25.8239C-120.128 26.1951 -120.222 26.5985 -120.222 27.0341V28.0284C-120.222 28.6117 -120.12 29.108 -119.916 29.517C-119.707 29.9261 -119.418 30.2386 -119.046 30.4545C-118.675 30.6667 -118.241 30.7727 -117.745 30.7727C-117.423 30.7727 -117.13 30.7273 -116.864 30.6364C-116.599 30.5417 -116.37 30.4015 -116.177 30.2159C-115.984 30.0303 -115.836 29.8011 -115.734 29.5284L-114.126 29.8182C-114.255 30.2917 -114.486 30.7064 -114.819 31.0625C-115.149 31.4148 -115.563 31.6894 -116.063 31.8864C-116.56 32.0795 -117.126 32.1761 -117.762 32.1761ZM-111.933 32V23.2727H-110.291V24.6591H-110.2C-110.041 24.1894 -109.761 23.8201 -109.359 23.5511C-108.954 23.2784 -108.495 23.142 -107.984 23.142C-107.878 23.142 -107.753 23.1458 -107.609 23.1534C-107.461 23.161 -107.346 23.1705 -107.263 23.1818V24.8068C-107.331 24.7879 -107.452 24.767 -107.626 24.7443C-107.8 24.7178 -107.975 24.7045 -108.149 24.7045C-108.55 24.7045 -108.908 24.7898 -109.223 24.9602C-109.533 25.1269 -109.78 25.3598 -109.961 25.6591C-110.143 25.9545 -110.234 26.2917 -110.234 26.6705V32H-111.933ZM-97.8608 23.2727L-101.026 32H-102.844L-106.014 23.2727H-104.19L-101.98 29.9886H-101.889L-99.6847 23.2727H-97.8608ZM-96.0642 32V23.2727H-94.3653V32H-96.0642ZM-95.2062 21.9261C-95.5017 21.9261 -95.7555 21.8277 -95.9676 21.6307C-96.1759 21.4299 -96.2801 21.1913 -96.2801 20.9148C-96.2801 20.6345 -96.1759 20.3958 -95.9676 20.1989C-95.7555 19.9981 -95.5017 19.8977 -95.2062 19.8977C-94.9108 19.8977 -94.6589 19.9981 -94.4506 20.1989C-94.2384 20.3958 -94.1324 20.6345 -94.1324 20.9148C-94.1324 21.1913 -94.2384 21.4299 -94.4506 21.6307C-94.6589 21.8277 -94.9108 21.9261 -95.2062 21.9261ZM-88.1185 32.1761C-88.9783 32.1761 -89.7188 31.9924 -90.3401 31.625C-90.9575 31.2538 -91.4348 30.733 -91.7719 30.0625C-92.1052 29.3883 -92.2719 28.5985 -92.2719 27.6932C-92.2719 26.7992 -92.1052 26.0114 -91.7719 25.3295C-91.4348 24.6477 -90.9651 24.1155 -90.3628 23.733C-89.7567 23.3504 -89.0484 23.1591 -88.2378 23.1591C-87.7454 23.1591 -87.2681 23.2405 -86.806 23.4034C-86.3438 23.5663 -85.9291 23.822 -85.5616 24.1705C-85.1942 24.5189 -84.9044 24.9716 -84.6923 25.5284C-84.4802 26.0814 -84.3741 26.7538 -84.3741 27.5455V28.1477H-91.3116V26.875H-86.0389C-86.0389 26.428 -86.1298 26.0322 -86.3116 25.6875C-86.4935 25.339 -86.7491 25.0644 -87.0787 24.8636C-87.4044 24.6629 -87.787 24.5625 -88.2264 24.5625C-88.7037 24.5625 -89.1204 24.6799 -89.4764 24.9148C-89.8287 25.1458 -90.1014 25.4489 -90.2946 25.8239C-90.484 26.1951 -90.5787 26.5985 -90.5787 27.0341V28.0284C-90.5787 28.6117 -90.4764 29.108 -90.2719 29.517C-90.0635 29.9261 -89.7738 30.2386 -89.4026 30.4545C-89.0313 30.6667 -88.5976 30.7727 -88.1014 30.7727C-87.7794 30.7727 -87.4859 30.7273 -87.2207 30.6364C-86.9556 30.5417 -86.7264 30.4015 -86.5332 30.2159C-86.3401 30.0303 -86.1923 29.8011 -86.0901 29.5284L-84.4821 29.8182C-84.6109 30.2917 -84.8419 30.7064 -85.1753 31.0625C-85.5048 31.4148 -85.9196 31.6894 -86.4196 31.8864C-86.9158 32.0795 -87.4821 32.1761 -88.1185 32.1761ZM-80.4128 32L-82.981 23.2727H-81.2253L-79.5151 29.6818H-79.4298L-77.7139 23.2727H-75.9582L-74.2537 29.6534H-74.1685L-72.4696 23.2727H-70.7139L-73.2764 32H-75.0094L-76.7821 25.6989H-76.9128L-78.6855 32H-80.4128ZM-57.9844 23.4205C-58.045 22.8826 -58.295 22.4659 -58.7344 22.1705C-59.1738 21.8712 -59.7268 21.7216 -60.3935 21.7216C-60.8707 21.7216 -61.2836 21.7973 -61.6321 21.9489C-61.9806 22.0966 -62.2514 22.3011 -62.4446 22.5625C-62.634 22.8201 -62.7287 23.1136 -62.7287 23.4432C-62.7287 23.7197 -62.6643 23.9583 -62.5355 24.1591C-62.4029 24.3598 -62.2306 24.5284 -62.0185 24.6648C-61.8026 24.7973 -61.5715 24.9091 -61.3253 25C-61.0791 25.0871 -60.8423 25.1591 -60.6151 25.2159L-59.4787 25.5114C-59.1075 25.6023 -58.7268 25.7254 -58.3366 25.8807C-57.9465 26.036 -57.5848 26.2405 -57.2514 26.4943C-56.9181 26.7481 -56.6491 27.0625 -56.4446 27.4375C-56.2363 27.8125 -56.1321 28.2614 -56.1321 28.7841C-56.1321 29.4432 -56.3026 30.0284 -56.6435 30.5398C-56.9806 31.0511 -57.4711 31.4545 -58.1151 31.75C-58.7552 32.0455 -59.5298 32.1932 -60.4389 32.1932C-61.3101 32.1932 -62.0639 32.0549 -62.7003 31.7784C-63.3366 31.5019 -63.8348 31.1098 -64.1946 30.6023C-64.5545 30.0909 -64.7533 29.4848 -64.7912 28.7841H-63.0298C-62.9957 29.2045 -62.8594 29.5549 -62.6207 29.8352C-62.3783 30.1117 -62.0696 30.3182 -61.6946 30.4545C-61.3158 30.5871 -60.901 30.6534 -60.4503 30.6534C-59.9541 30.6534 -59.5128 30.5758 -59.1264 30.4205C-58.7363 30.2614 -58.4295 30.0417 -58.206 29.7614C-57.9825 29.4773 -57.8707 29.1458 -57.8707 28.767C-57.8707 28.4223 -57.9692 28.1402 -58.1662 27.9205C-58.3594 27.7008 -58.6226 27.5189 -58.956 27.375C-59.2855 27.2311 -59.6586 27.1042 -60.0753 26.9943L-61.4503 26.6193C-62.3821 26.3655 -63.1207 25.9924 -63.6662 25.5C-64.2079 25.0076 -64.4787 24.3561 -64.4787 23.5455C-64.4787 22.875 -64.2969 22.2898 -63.9332 21.7898C-63.5696 21.2898 -63.0772 20.9015 -62.456 20.625C-61.8348 20.3447 -61.134 20.2045 -60.3537 20.2045C-59.5658 20.2045 -58.8707 20.3428 -58.2685 20.6193C-57.6624 20.8958 -57.1851 21.2765 -56.8366 21.7614C-56.4882 22.2424 -56.3063 22.7955 -56.2912 23.4205H-57.9844ZM-50.2943 32.1761C-51.139 32.1761 -51.8663 31.9848 -52.4761 31.6023C-53.0822 31.2159 -53.5481 30.6837 -53.8739 30.0057C-54.1996 29.3277 -54.3625 28.5511 -54.3625 27.6761C-54.3625 26.7898 -54.1958 26.0076 -53.8625 25.3295C-53.5292 24.6477 -53.0595 24.1155 -52.4534 23.733C-51.8474 23.3504 -51.1333 23.1591 -50.3114 23.1591C-49.6485 23.1591 -49.0576 23.2822 -48.5386 23.5284C-48.0197 23.7708 -47.6011 24.1117 -47.283 24.5511C-46.961 24.9905 -46.7697 25.5038 -46.7091 26.0909H-48.3625C-48.4534 25.6818 -48.6617 25.3295 -48.9875 25.0341C-49.3095 24.7386 -49.7413 24.5909 -50.283 24.5909C-50.7564 24.5909 -51.1712 24.7159 -51.5273 24.9659C-51.8795 25.2121 -52.1542 25.5644 -52.3511 26.0227C-52.5481 26.4773 -52.6466 27.0152 -52.6466 27.6364C-52.6466 28.2727 -52.55 28.822 -52.3568 29.2841C-52.1636 29.7462 -51.8909 30.1042 -51.5386 30.358C-51.1826 30.6117 -50.764 30.7386 -50.283 30.7386C-49.961 30.7386 -49.6693 30.6799 -49.408 30.5625C-49.1428 30.4413 -48.9212 30.2689 -48.7432 30.0455C-48.5614 29.822 -48.4345 29.553 -48.3625 29.2386H-46.7091C-46.7697 29.803 -46.9534 30.3068 -47.2602 30.75C-47.567 31.1932 -47.978 31.5417 -48.4932 31.7955C-49.0045 32.0492 -49.6049 32.1761 -50.2943 32.1761ZM-42.9935 26.8182V32H-44.6923V20.3636H-43.0162V24.6932H-42.9082C-42.7037 24.2235 -42.3912 23.8504 -41.9707 23.5739C-41.5503 23.2973 -41.001 23.1591 -40.323 23.1591C-39.7245 23.1591 -39.2018 23.2822 -38.7548 23.5284C-38.3041 23.7746 -37.9556 24.142 -37.7094 24.6307C-37.4594 25.1155 -37.3344 25.7216 -37.3344 26.4489V32H-39.0332V26.6534C-39.0332 26.0133 -39.198 25.517 -39.5276 25.1648C-39.8571 24.8087 -40.3154 24.6307 -40.9026 24.6307C-41.3041 24.6307 -41.6639 24.7159 -41.9821 24.8864C-42.2965 25.0568 -42.5446 25.3068 -42.7264 25.6364C-42.9044 25.9621 -42.9935 26.3561 -42.9935 26.8182ZM-31.106 32.1761C-31.9658 32.1761 -32.7063 31.9924 -33.3276 31.625C-33.945 31.2538 -34.4223 30.733 -34.7594 30.0625C-35.0927 29.3883 -35.2594 28.5985 -35.2594 27.6932C-35.2594 26.7992 -35.0927 26.0114 -34.7594 25.3295C-34.4223 24.6477 -33.9526 24.1155 -33.3503 23.733C-32.7442 23.3504 -32.0359 23.1591 -31.2253 23.1591C-30.7329 23.1591 -30.2556 23.2405 -29.7935 23.4034C-29.3313 23.5663 -28.9166 23.822 -28.5491 24.1705C-28.1817 24.5189 -27.892 24.9716 -27.6798 25.5284C-27.4677 26.0814 -27.3616 26.7538 -27.3616 27.5455V28.1477H-34.2991V26.875H-29.0264C-29.0264 26.428 -29.1173 26.0322 -29.2991 25.6875C-29.481 25.339 -29.7366 25.0644 -30.0662 24.8636C-30.392 24.6629 -30.7745 24.5625 -31.2139 24.5625C-31.6912 24.5625 -32.1079 24.6799 -32.4639 24.9148C-32.8162 25.1458 -33.0889 25.4489 -33.2821 25.8239C-33.4715 26.1951 -33.5662 26.5985 -33.5662 27.0341V28.0284C-33.5662 28.6117 -33.4639 29.108 -33.2594 29.517C-33.051 29.9261 -32.7613 30.2386 -32.3901 30.4545C-32.0188 30.6667 -31.5851 30.7727 -31.0889 30.7727C-30.767 30.7727 -30.4734 30.7273 -30.2082 30.6364C-29.9431 30.5417 -29.7139 30.4015 -29.5207 30.2159C-29.3276 30.0303 -29.1798 29.8011 -29.0776 29.5284L-27.4696 29.8182C-27.5984 30.2917 -27.8295 30.7064 -28.1628 31.0625C-28.4923 31.4148 -28.9071 31.6894 -29.4071 31.8864C-29.9033 32.0795 -30.4696 32.1761 -31.106 32.1761ZM-22.0097 32.1705C-22.7142 32.1705 -23.343 31.9905 -23.896 31.6307C-24.4453 31.267 -24.8771 30.75 -25.1915 30.0795C-25.5021 29.4053 -25.6574 28.5966 -25.6574 27.6534C-25.6574 26.7102 -25.5002 25.9034 -25.1858 25.233C-24.8676 24.5625 -24.432 24.0492 -23.879 23.6932C-23.3259 23.3371 -22.699 23.1591 -21.9983 23.1591C-21.4566 23.1591 -21.021 23.25 -20.6915 23.4318C-20.3581 23.6098 -20.1006 23.8182 -19.9187 24.0568C-19.7331 24.2955 -19.5892 24.5057 -19.4869 24.6875H-19.3847V20.3636H-17.6858V32H-19.3449V30.642H-19.4869C-19.5892 30.8277 -19.7369 31.0398 -19.9301 31.2784C-20.1195 31.517 -20.3809 31.7254 -20.7142 31.9034C-21.0475 32.0814 -21.4794 32.1705 -22.0097 32.1705ZM-21.6347 30.7216C-21.146 30.7216 -20.7331 30.5928 -20.396 30.3352C-20.0551 30.0739 -19.7975 29.7121 -19.6233 29.25C-19.4453 28.7879 -19.3562 28.25 -19.3562 27.6364C-19.3562 27.0303 -19.4434 26.5 -19.6176 26.0455C-19.7919 25.5909 -20.0475 25.2367 -20.3847 24.983C-20.7218 24.7292 -21.1384 24.6023 -21.6347 24.6023C-22.146 24.6023 -22.5722 24.7348 -22.9131 25C-23.254 25.2652 -23.5115 25.6269 -23.6858 26.0852C-23.8562 26.5436 -23.9415 27.0606 -23.9415 27.6364C-23.9415 28.2197 -23.8544 28.7443 -23.6801 29.2102C-23.5059 29.6761 -23.2483 30.0455 -22.9074 30.3182C-22.5627 30.5871 -22.1384 30.7216 -21.6347 30.7216ZM-9.53267 28.3807V23.2727H-7.82812V32H-9.49858V30.4886H-9.58949C-9.79025 30.9545 -10.1122 31.3428 -10.5554 31.6534C-10.9948 31.9602 -11.5421 32.1136 -12.1974 32.1136C-12.758 32.1136 -13.2543 31.9905 -13.6861 31.7443C-14.1141 31.4943 -14.4512 31.125 -14.6974 30.6364C-14.9399 30.1477 -15.0611 29.5436 -15.0611 28.8239V23.2727H-13.3622V28.6193C-13.3622 29.214 -13.1974 29.6875 -12.8679 30.0398C-12.5384 30.392 -12.1103 30.5682 -11.5838 30.5682C-11.2656 30.5682 -10.9493 30.4886 -10.6349 30.3295C-10.3168 30.1705 -10.0535 29.9299 -9.84517 29.608C-9.63305 29.286 -9.52888 28.8769 -9.53267 28.3807ZM-3.64659 20.3636V32H-5.34546V20.3636H-3.64659ZM2.60028 32.1761C1.74043 32.1761 0.999899 31.9924 0.378687 31.625C-0.238737 31.2538 -0.71601 30.733 -1.05313 30.0625C-1.38646 29.3883 -1.55313 28.5985 -1.55313 27.6932C-1.55313 26.7992 -1.38646 26.0114 -1.05313 25.3295C-0.71601 24.6477 -0.246313 24.1155 0.35596 23.733C0.962021 23.3504 1.67035 23.1591 2.48096 23.1591C2.97338 23.1591 3.45066 23.2405 3.91278 23.4034C4.3749 23.5663 4.78967 23.822 5.1571 24.1705C5.52452 24.5189 5.81429 24.9716 6.02641 25.5284C6.23854 26.0814 6.3446 26.7538 6.3446 27.5455V28.1477H-0.592904V26.875H4.67982C4.67982 26.428 4.58891 26.0322 4.4071 25.6875C4.22528 25.339 3.9696 25.0644 3.64005 24.8636C3.31429 24.6629 2.93172 24.5625 2.49232 24.5625C2.01505 24.5625 1.59838 24.6799 1.24232 24.9148C0.890051 25.1458 0.617323 25.4489 0.424142 25.8239C0.234748 26.1951 0.140051 26.5985 0.140051 27.0341V28.0284C0.140051 28.6117 0.242324 29.108 0.446869 29.517C0.655202 29.9261 0.944975 30.2386 1.31619 30.4545C1.6874 30.6667 2.12111 30.7727 2.61732 30.7727C2.93929 30.7727 3.23285 30.7273 3.49801 30.6364C3.76316 30.5417 3.99232 30.4015 4.18551 30.2159C4.37869 30.0303 4.52641 29.8011 4.62869 29.5284L6.23664 29.8182C6.10785 30.2917 5.87679 30.7064 5.54346 31.0625C5.21391 31.4148 4.79914 31.6894 4.29914 31.8864C3.80293 32.0795 3.23664 32.1761 2.60028 32.1761Z" fill="#41403C"/>
<path d="M64.3118 33H62.343L65.9276 22.8182H68.2045L71.794 33H69.8253L67.1058 24.9062H67.0263L64.3118 33ZM64.3764 29.0078H69.7457V30.4893H64.3764V29.0078ZM73.2056 35.8636V25.3636H74.9755V26.6264H75.0799C75.1727 26.4408 75.3036 26.2436 75.4726 26.0348C75.6417 25.8227 75.8703 25.642 76.1587 25.4929C76.4471 25.3404 76.815 25.2642 77.2624 25.2642C77.8524 25.2642 78.3843 25.415 78.8583 25.7166C79.3355 26.0149 79.7134 26.4574 79.9918 27.044C80.2735 27.6274 80.4144 28.3433 80.4144 29.1918C80.4144 30.0303 80.2768 30.7429 80.0017 31.3295C79.7266 31.9162 79.3521 32.3636 78.8782 32.6719C78.4042 32.9801 77.8673 33.1342 77.2674 33.1342C76.8299 33.1342 76.4669 33.0613 76.1786 32.9155C75.8902 32.7696 75.6582 32.594 75.4826 32.3885C75.3102 32.1797 75.176 31.9825 75.0799 31.7969H75.0053V35.8636H73.2056ZM74.9705 29.1818C74.9705 29.6757 75.0401 30.1082 75.1793 30.4794C75.3218 30.8506 75.5257 31.1406 75.7908 31.3494C76.0593 31.5549 76.3841 31.6577 76.7652 31.6577C77.163 31.6577 77.4961 31.5516 77.7645 31.3395C78.033 31.1241 78.2352 30.8307 78.3711 30.4595C78.5103 30.085 78.5799 29.6591 78.5799 29.1818C78.5799 28.7079 78.5119 28.2869 78.376 27.919C78.2401 27.5511 78.038 27.2628 77.7695 27.054C77.501 26.8452 77.1663 26.7408 76.7652 26.7408C76.3808 26.7408 76.0543 26.8419 75.7858 27.044C75.5174 27.2462 75.3135 27.5296 75.1743 27.8942C75.0384 28.2588 74.9705 28.688 74.9705 29.1818ZM82.1056 35.8636V25.3636H83.8755V26.6264H83.9799C84.0727 26.4408 84.2036 26.2436 84.3726 26.0348C84.5417 25.8227 84.7703 25.642 85.0587 25.4929C85.3471 25.3404 85.7149 25.2642 86.1624 25.2642C86.7524 25.2642 87.2843 25.415 87.7583 25.7166C88.2355 26.0149 88.6134 26.4574 88.8918 27.044C89.1735 27.6274 89.3144 28.3433 89.3144 29.1918C89.3144 30.0303 89.1768 30.7429 88.9017 31.3295C88.6266 31.9162 88.2521 32.3636 87.7782 32.6719C87.3042 32.9801 86.7673 33.1342 86.1674 33.1342C85.7299 33.1342 85.3669 33.0613 85.0786 32.9155C84.7902 32.7696 84.5582 32.594 84.3826 32.3885C84.2102 32.1797 84.076 31.9825 83.9799 31.7969H83.9053V35.8636H82.1056ZM83.8705 29.1818C83.8705 29.6757 83.9401 30.1082 84.0793 30.4794C84.2218 30.8506 84.4257 31.1406 84.6908 31.3494C84.9593 31.5549 85.2841 31.6577 85.6652 31.6577C86.063 31.6577 86.3961 31.5516 86.6645 31.3395C86.933 31.1241 87.1352 30.8307 87.2711 30.4595C87.4103 30.085 87.4799 29.6591 87.4799 29.1818C87.4799 28.7079 87.4119 28.2869 87.276 27.919C87.1401 27.5511 86.938 27.2628 86.6695 27.054C86.401 26.8452 86.0663 26.7408 85.6652 26.7408C85.2808 26.7408 84.9543 26.8419 84.6858 27.044C84.4174 27.2462 84.2135 27.5296 84.0743 27.8942C83.9384 28.2588 83.8705 28.688 83.8705 29.1818ZM92.8053 22.8182V33H91.0056V22.8182H92.8053ZM94.806 33V25.3636H96.6057V33H94.806ZM95.7108 24.2798C95.4258 24.2798 95.1805 24.1854 94.975 23.9964C94.7695 23.8042 94.6668 23.5739 94.6668 23.3054C94.6668 23.0336 94.7695 22.8033 94.975 22.6143C95.1805 22.4221 95.4258 22.326 95.7108 22.326C95.9991 22.326 96.2444 22.4221 96.4466 22.6143C96.6521 22.8033 96.7548 23.0336 96.7548 23.3054C96.7548 23.5739 96.6521 23.8042 96.4466 23.9964C96.2444 24.1854 95.9991 24.2798 95.7108 24.2798ZM101.987 33.1491C101.221 33.1491 100.56 32.9901 100.003 32.6719C99.4499 32.3504 99.024 31.8963 98.7257 31.3097C98.4274 30.7197 98.2782 30.0253 98.2782 29.2266C98.2782 28.4411 98.4274 27.7517 98.7257 27.1584C99.0273 26.5618 99.4482 26.0978 99.9885 25.7663C100.529 25.4316 101.163 25.2642 101.893 25.2642C102.363 25.2642 102.807 25.3404 103.225 25.4929C103.646 25.642 104.017 25.8741 104.339 26.1889C104.663 26.5038 104.919 26.9048 105.104 27.392C105.29 27.8759 105.383 28.4527 105.383 29.1222V29.674H99.1234V28.4609H103.657C103.654 28.1162 103.58 27.8097 103.434 27.5412C103.288 27.2694 103.084 27.0556 102.822 26.8999C102.564 26.7441 102.262 26.6662 101.917 26.6662C101.55 26.6662 101.226 26.7557 100.948 26.9347C100.67 27.1103 100.452 27.3423 100.297 27.6307C100.144 27.9157 100.066 28.2289 100.063 28.5703V29.6293C100.063 30.0734 100.144 30.4545 100.307 30.7727C100.469 31.0876 100.696 31.3295 100.988 31.4986C101.279 31.6643 101.621 31.7472 102.012 31.7472C102.274 31.7472 102.511 31.7107 102.723 31.6378C102.935 31.5616 103.119 31.4505 103.275 31.3047C103.43 31.1589 103.548 30.9782 103.628 30.7628L105.308 30.9517C105.202 31.3958 105 31.7836 104.702 32.1151C104.407 32.4432 104.029 32.6984 103.568 32.8807C103.107 33.0597 102.58 33.1491 101.987 33.1491ZM109.889 33.1342C109.289 33.1342 108.752 32.9801 108.278 32.6719C107.804 32.3636 107.43 31.9162 107.155 31.3295C106.88 30.7429 106.742 30.0303 106.742 29.1918C106.742 28.3433 106.881 27.6274 107.16 27.044C107.441 26.4574 107.821 26.0149 108.298 25.7166C108.775 25.415 109.307 25.2642 109.894 25.2642C110.341 25.2642 110.709 25.3404 110.998 25.4929C111.286 25.642 111.515 25.8227 111.684 26.0348C111.853 26.2436 111.984 26.4408 112.076 26.6264H112.151V22.8182H113.956V33H112.186V31.7969H112.076C111.984 31.9825 111.849 32.1797 111.674 32.3885C111.498 32.594 111.266 32.7696 110.978 32.9155C110.689 33.0613 110.326 33.1342 109.889 33.1342ZM110.391 31.6577C110.772 31.6577 111.097 31.5549 111.366 31.3494C111.634 31.1406 111.838 30.8506 111.977 30.4794C112.116 30.1082 112.186 29.6757 112.186 29.1818C112.186 28.688 112.116 28.2588 111.977 27.8942C111.841 27.5296 111.639 27.2462 111.371 27.044C111.105 26.8419 110.779 26.7408 110.391 26.7408C109.99 26.7408 109.655 26.8452 109.387 27.054C109.118 27.2628 108.916 27.5511 108.78 27.919C108.644 28.2869 108.576 28.7079 108.576 29.1818C108.576 29.6591 108.644 30.085 108.78 30.4595C108.92 30.8307 109.123 31.1241 109.392 31.3395C109.664 31.5516 109.997 31.6577 110.391 31.6577Z" fill="white"/>
<rect x="-730" y="-184" width="1440" height="964" fill="black" fill-opacity="0.6"/>
<rect width="720" height="957" transform="translate(-30 -191)" fill="white"/>
<path d="M0 0H120.214L132 16.5L120.214 33H0L11.7857 16.5L0 0Z" fill="#738C79"/>
</g>
<defs>
<clipPath id="clip0_2269_3220">
<rect width="1440" height="964" fill="white" transform="translate(-730 -184)"/>
</clipPath>
</defs>
</svg>
